<svg width="24" height="24" viewBox="0 0 24 24" fill="none" xmlns="http://www.w3.org/2000/svg">
<path fill-rule="evenodd" clip-rule="evenodd" d="M18.1465 2.14645C18.3417 1.95118 18.6583 1.95118 18.8536 2.14645L21.8536 5.14645C22.0488 5.34171 22.0488 5.65829 21.8536 5.85355L12.8536 14.8536C12.7771 14.9301 12.6778 14.9797 12.5707 14.995L9.07072 15.495C8.91492 15.5172 8.75774 15.4648 8.64645 15.3536C8.53517 15.2423 8.48277 15.0851 8.50503 14.9293L9.00503 11.4293C9.02033 11.3222 9.06995 11.2229 9.14645 11.1464L18.1465 2.14645ZM9.97141 11.7357L9.58926 14.4107L12.2643 14.0286L20.7929 5.5L18.5 3.20711L9.97141 11.7357Z" fill="black"/>
<path fill-rule="evenodd" clip-rule="evenodd" d="M5 6C3.89543 6 3 6.89543 3 8V19C3 20.1046 3.89543 21 5 21H16C17.1046 21 18 20.1046 18 19V11.5H19V19C19 20.6569 17.6569 22 16 22H5C3.34315 22 2 20.6569 2 19V8C2 6.34315 3.34315 5 5 5H12.5V6H5Z" fill="black"/>
</svg>
