<svg width="24" height="24" viewBox="0 0 24 24" fill="none" xmlns="http://www.w3.org/2000/svg">
<path fill-rule="evenodd" clip-rule="evenodd" d="M4.63449 7.15883C4.72905 7.05752 4.86142 7 5 7H19C19.1386 7 19.271 7.05752 19.3655 7.15883C19.4601 7.26013 19.5084 7.39615 19.4988 7.5344L18.4988 22.0344C18.4807 22.2966 18.2628 22.5 18 22.5H6C5.73721 22.5 5.51927 22.2966 5.50119 22.0344L4.50119 7.5344C4.49165 7.39615 4.53993 7.26013 4.63449 7.15883ZM5.53567 8L6.46671 21.5H17.5333L18.4643 8H5.53567Z" fill="black"/>
<path fill-rule="evenodd" clip-rule="evenodd" d="M11.5 19V10H12.5V19H11.5Z" fill="black"/>
<path fill-rule="evenodd" clip-rule="evenodd" d="M8.50079 19.0276L8.00079 10.0276L8.99925 9.97217L9.49925 18.9722L8.50079 19.0276Z" fill="black"/>
<path fill-rule="evenodd" clip-rule="evenodd" d="M15.4992 19.0276L15.9992 10.0276L15.0007 9.97217L14.5007 18.9722L15.4992 19.0276Z" fill="black"/>
<path fill-rule="evenodd" clip-rule="evenodd" d="M4.5 6.5C4.5 5.11929 5.61929 4 7 4H17C18.3807 4 19.5 5.11929 19.5 6.5V7.5C19.5 7.77614 19.2761 8 19 8H5C4.72386 8 4.5 7.77614 4.5 7.5V6.5ZM7 5C6.17157 5 5.5 5.67157 5.5 6.5V7H18.5V6.5C18.5 5.67157 17.8284 5 17 5H7Z" fill="black"/>
<path fill-rule="evenodd" clip-rule="evenodd" d="M12 2.5C11.1716 2.5 10.5 3.17157 10.5 4V4.5H9.5V4C9.5 2.61929 10.6193 1.5 12 1.5C13.3807 1.5 14.5 2.61929 14.5 4V4.5H13.5V4C13.5 3.17157 12.8284 2.5 12 2.5Z" fill="black"/>
<path fill-rule="evenodd" clip-rule="evenodd" d="M22 8H2V7H22V8Z" fill="black"/>
</svg>
