<svg width="24" height="24" viewBox="0 0 24 24" fill="none" xmlns="http://www.w3.org/2000/svg">
<path fill-rule="evenodd" clip-rule="evenodd" d="M2.5 17V14H3.5V17C3.5 17.8284 4.17157 18.5 5 18.5H19C19.8284 18.5 20.5 17.8284 20.5 17V14H21.5V17C21.5 18.3807 20.3807 19.5 19 19.5H5C3.61929 19.5 2.5 18.3807 2.5 17Z" fill="black"/>
<path fill-rule="evenodd" clip-rule="evenodd" d="M12.5 6V17H11.5V6H12.5Z" fill="black"/>
<path fill-rule="evenodd" clip-rule="evenodd" d="M12.0001 5.5C12.1519 5.5 12.2956 5.56904 12.3905 5.68765L16.3905 10.6877L15.6096 11.3123L12.0001 6.80039L8.39049 11.3123L7.60962 10.6877L11.6096 5.68765C11.7045 5.56904 11.8482 5.5 12.0001 5.5Z" fill="black"/>
</svg>
