<svg width="719" height="471" viewBox="0 0 719 471" fill="none" xmlns="http://www.w3.org/2000/svg">
<path fill-rule="evenodd" clip-rule="evenodd" d="M163.442 5.18622C144.23 13.2772 100.472 42.9582 79.5063 62.1202C58.6473 81.1832 39.4633 109.301 36.9933 124.431C35.9763 130.658 36.4993 140.37 38.1543 146.013C40.7063 154.712 40.3173 156.869 35.6013 160.172C28.8803 164.879 26.4813 172.756 29.3183 180.8C30.5573 184.315 29.6103 189.518 27.0053 193.507C24.5783 197.223 23.3053 202.987 24.1763 206.317C25.3563 210.827 23.5023 213.54 16.9123 216.948C4.94734 223.135 -2.08966 238.453 0.554338 252.551C3.43734 267.916 16.6963 281.966 28.7263 282.404C34.3623 282.61 38.2793 284.345 38.2833 286.638C38.2953 293.294 52.6443 305.252 60.6193 305.252C69.8843 305.252 80.2903 313.612 80.2903 321.055C80.2903 330.391 93.8353 341.252 105.477 341.252C111.229 341.252 116.682 342.459 117.594 343.935C119.238 346.595 137.959 350.203 152.179 350.601C156.243 350.714 162.281 352.707 165.597 355.03C168.912 357.352 173.724 359.252 176.289 359.252C178.855 359.252 184.508 363.302 188.851 368.252C197.224 377.794 203.833 379.178 217.042 374.156C223.346 371.759 229.316 372.389 243.487 376.946C253.554 380.184 266.515 383.759 272.29 384.892C278.065 386.024 285.205 389.494 288.157 392.601C291.109 395.709 296.867 398.252 300.954 398.252C317.166 398.252 331.23 405.164 337.081 416.007C341.113 423.48 346.898 428.285 356.774 432.365C370.591 438.073 370.899 438.072 382.533 432.316C394.175 426.556 394.395 426.556 402.078 432.292C408.829 437.332 411.53 437.667 422.656 434.843C434.061 431.948 435.91 432.23 439.547 437.422C442.018 440.95 447.117 443.252 452.46 443.252C457.317 443.252 461.29 444.666 461.29 446.395C461.29 448.124 464.862 452.849 469.228 456.895C477.811 464.849 493.123 466.693 503.679 461.044C508.037 458.711 510.842 458.805 513.954 461.388C516.537 463.532 522.113 464.178 528.013 463.016C543.507 459.965 558.214 461.158 563.443 465.891C571.397 473.089 585.996 471.343 593.072 462.347C596.492 458 599.29 451.467 599.29 447.829C599.29 443.685 602.091 439.939 606.79 437.798C610.915 435.918 614.29 433.087 614.29 431.505C614.29 429.902 618.867 429.372 624.627 430.307C639.412 432.706 649.975 429.225 653.874 420.669C656.344 415.248 659.607 413.252 666.002 413.252C676.017 413.252 693.844 397.628 691.323 391.06C690.424 388.716 692.801 385.615 696.945 383.727C704.261 380.394 708.645 370.004 706.793 360.388C706.228 357.452 708.808 352.006 712.528 348.287C721.096 339.719 721.132 329.403 712.631 318.595C705.151 309.087 705.075 296.422 712.429 285.198C716.195 279.45 716.362 276.668 713.372 269.45C711.375 264.628 707.975 260.006 705.817 259.178C702.823 258.029 703.599 254.302 709.092 243.454C722.239 217.484 715.929 189.288 690.79 161.675C645.703 112.15 558.263 76.2512 368.441 29.3332C278.801 7.17722 250.772 2.00122 212.29 0.494218C182.505 -0.670782 175.829 -0.0297804 163.442 5.18622ZM243.223 12.7242C270.19 16.7892 330.874 29.7932 362.049 38.1872L374.817 41.6252L352.803 56.7712C291.534 98.9272 265.233 136.242 248.176 205.211C243.45 224.322 239.18 240.334 238.687 240.794C236.151 243.154 128.154 200.986 98.4463 186.036C57.8073 165.584 46.2753 153.969 46.3153 133.532C46.3503 115.476 56.5293 97.6742 80.0173 74.5902C98.0113 56.9052 138.155 27.3932 158.115 17.1752C177.581 7.21023 199.158 6.08222 243.223 12.7242ZM256.761 49.9712C204.29 85.2102 188.765 105.653 176.087 156.201C171.19 175.725 170.339 183.501 172.825 185.987C174.676 187.838 176.87 188.672 177.701 187.841C178.532 187.01 182.565 173.111 186.664 156.953C198.721 109.423 209.306 95.4012 260.562 59.0592C291.555 37.0852 295.122 33.7382 290.56 30.9192C289.004 29.9582 273.795 38.5312 256.761 49.9712ZM519.167 81.4912C644.474 123.358 705.955 168.854 705.196 219.152C704.92 237.423 692.518 256.498 666.748 278.287C634.172 305.832 577.971 329.252 544.449 329.252C531.813 329.252 480.404 316.362 404.29 294.109C378.715 286.632 348.003 277.65 336.04 274.149C324.078 270.649 314.293 266.427 314.298 264.768C314.302 263.109 317.64 249.303 321.717 234.088C335.023 184.419 357.113 149.199 393.347 119.877C422.883 95.9752 465.203 68.4942 472.667 68.3682C476.45 68.3042 497.375 74.2092 519.167 81.4912ZM63.6563 116.468C58.2983 125.138 112.787 162.955 120.1 155.642C124.016 151.726 124.891 152.54 104.29 140.946C95.2153 135.839 83.8253 127.519 78.9793 122.456C69.4823 112.536 66.7473 111.467 63.6563 116.468ZM93.9383 116.012C91.9243 119.271 106.275 131.252 112.195 131.252C119.324 131.252 116.627 123.745 107.577 118.399C97.5433 112.471 96.2653 112.248 93.9383 116.012ZM542.29 123.406C499.602 141.257 468.592 161.8 447.819 185.989C435.582 200.238 411.242 247.471 408.39 262.502C404.707 281.915 413.231 271.922 429.435 237.834C454.692 184.7 483.261 158.8 543.583 134.353C570.229 123.554 579.398 116.132 565.79 116.379C561.94 116.449 551.365 119.611 542.29 123.406ZM59.1263 174.56C74.0433 188.784 156.834 225.2 221.29 245.889C230.946 248.988 235.055 252.018 235.722 256.532C236.234 260.002 233.197 280.95 228.972 303.084C224.747 325.217 221.29 347.44 221.29 352.468C221.29 362.096 217.182 365.252 204.65 365.252C196.625 365.252 191.29 357.544 191.29 345.949C191.29 337.579 186.156 335.505 183.375 342.752C180.271 350.841 167.871 348.078 162.739 338.154C158.092 329.167 152.29 328.507 152.29 336.965C152.29 340.372 149.509 340.933 139.54 339.537C119.166 336.684 118.863 336.472 122.796 327.84C127.852 316.743 123.49 314.979 113.845 324.221C103.411 334.217 99.7603 334.284 93.4113 324.595C88.6413 317.314 88.7113 316.509 94.8423 308.216C98.3883 303.42 101.29 298.765 101.29 297.873C101.29 294.49 94.0403 296.453 88.7053 301.281C84.4453 305.137 82.3253 305.487 79.6193 302.781C76.9143 300.076 76.9303 298.412 79.6903 295.652C83.5503 291.792 84.6583 281.252 81.2043 281.252C80.0573 281.252 75.3923 284.822 70.8383 289.185C62.8583 296.83 62.2813 296.936 54.9243 292.116C45.5453 285.971 45.0343 275.804 53.6403 266.568C58.1543 261.722 59.0613 258.823 56.7763 256.538C54.4923 254.254 51.0083 256.061 44.7233 262.789C39.8613 267.993 33.1473 272.252 29.8043 272.252C20.6563 272.252 11.2903 258.366 11.2903 244.803C11.2903 234.923 12.7633 232.242 21.0403 227.064C27.6483 222.931 33.9323 221.434 40.5403 222.42C51.6133 224.072 54.6523 217.041 44.2873 213.751C40.9853 212.703 36.9303 209.317 35.2763 206.226C32.8933 201.773 33.6633 199.631 38.9853 195.903C44.7383 191.873 45.1703 190.349 41.9953 185.266C31.5863 168.599 44.4463 160.562 59.1263 174.56ZM627.169 190.087C583.274 213.108 530.29 254.727 530.29 266.185C530.29 272.807 537.823 268.506 555.99 251.511C579.613 229.413 593.182 220.039 630.109 200.309C646.159 191.733 659.29 182.813 659.29 180.485C659.29 174.045 655.721 175.112 627.169 190.087ZM73.2553 223.738C66.5793 231.115 66.9953 240.957 74.2903 248.252C79.8823 253.844 89.2903 256.493 89.2903 252.475C89.2903 251.498 86.5903 247.266 83.2903 243.071C75.6643 233.376 75.7533 231.144 83.8663 228.569C88.8853 226.976 91.9793 228.411 96.9423 234.635C102.118 241.127 103.8 241.855 105.199 238.211C106.164 235.694 104.232 230.174 100.905 225.943C93.6723 216.749 80.5293 215.701 73.2553 223.738ZM197.29 256.585C189.964 258.794 185.29 266.748 185.29 277.004C185.29 282.775 183.494 287.299 180.79 288.337C178.233 289.318 176.29 293.79 176.29 298.693C176.29 309.19 185.86 318.826 193.409 315.93C198.252 314.071 198.079 313.373 191.552 308.45C183.063 302.047 184.796 293.252 194.546 293.252C199.855 293.252 200.618 292.063 198.877 286.502C194.86 273.669 195.629 267.972 201.539 266.78C205.028 266.076 209.377 268.39 212.603 272.666C217.439 279.078 218.102 279.232 219.968 274.371C223.568 264.988 208.532 253.196 197.29 256.585ZM637.54 260.492C632.954 263.163 629.947 272.252 633.649 272.252C638.66 272.252 650.29 264.578 650.29 261.27C650.29 256.536 644.898 256.207 637.54 260.492ZM117.297 267.954C114.797 274.47 121.145 280.597 125.688 276.054C129.528 272.214 127.15 263.252 122.29 263.252C120.536 263.252 118.29 265.368 117.297 267.954ZM703.779 273.313C704.372 276.395 702.079 280.736 698.553 283.206C693.492 286.75 692.882 288.752 695.418 293.492C699.662 301.422 696.69 305.252 686.29 305.252C681.535 305.252 676.904 306.449 676 307.912C673.31 312.265 682.759 318.091 689.605 316.3C696.034 314.619 710.29 325.519 710.29 332.116C710.29 337.731 698.458 347.253 691.54 347.206C682.882 347.147 679.051 344.245 677.74 336.752C676.644 330.487 671.506 325.764 668.086 327.878C666.991 328.555 666.695 332.251 667.429 336.091C668.446 341.408 666.879 343.932 660.858 346.675C650.438 351.423 654.257 357.269 666.384 355.136C680.095 352.724 696.561 356.989 697.77 363.265C699.612 372.834 692.408 377.799 679.776 375.665C666.357 373.398 664.516 377.641 675.731 384.989C681.741 388.927 682.59 390.954 680.145 395.523C675.362 404.461 663.887 405.728 652.343 398.594C639.939 390.928 635.804 393.714 645.013 403.534L651.79 410.762L644.708 416.507C635.611 423.886 626.067 423.8 616.471 416.252C605.029 407.251 596.656 409.34 606.04 418.854C612.164 425.063 600.846 431.833 591.478 427.564C581.496 423.016 580.172 425.705 586.186 438.315C591.098 448.617 591.083 449.404 585.849 455.186C579.178 462.558 574.313 462.847 567.728 456.261C564.446 452.98 563.295 448.476 564.367 443.115C565.264 438.63 565.176 434.138 564.17 433.132C560.876 429.838 554.29 437.828 554.29 445.119C554.29 452.744 548.745 454.507 542.961 448.723C540.255 446.017 538.135 446.367 533.875 450.223C525.494 457.807 521.462 456.385 516.237 444.002L511.491 432.752L508.198 440.252C500.961 456.733 486.603 459.838 474.34 447.574C467.482 440.716 466.887 438.397 468.769 425.844L470.877 411.791L464.583 417.487C461.122 420.619 458.29 425.673 458.29 428.717C458.29 432.148 456.131 434.252 452.611 434.252C446.468 434.252 442.061 426.668 445.226 421.546C446.534 419.43 444.302 419.103 438.486 420.559C409.297 427.865 402.73 425.807 400.805 408.752C399.594 398.011 394.183 397.926 392.844 408.626C390.778 425.135 366.131 430.849 351.452 418.222C342.998 410.951 340.408 396.653 345.524 385.502C347.216 381.812 346.643 380.252 343.593 380.252C341.206 380.252 337.715 383.627 335.836 387.752C332.095 395.962 328.892 396.856 320.093 392.146C313.011 388.356 312.411 375.3 318.985 368.036C325.207 361.161 320.008 358.283 311.779 364.047C307.263 367.21 305.29 371.734 305.29 378.922C305.29 391.519 297.898 393.064 292.658 381.562C289.756 375.194 290.872 366.042 299.153 328.312C304.653 303.254 310.085 281.693 311.225 280.399C312.364 279.104 338.833 285.593 370.043 294.818C526.346 341.016 542.741 344.006 582.91 333.636C617.704 324.655 662.18 299.234 684.692 275.463C694.265 265.354 702.076 264.474 703.779 273.313ZM594.79 289.303C580.815 296.092 577.586 296.465 547.54 294.76C514.153 292.865 505.939 295.7 525.812 302.259C543.954 308.247 580.857 307.055 596.71 299.97C604.365 296.548 611.605 292.169 612.798 290.239C617.417 282.766 609.135 282.335 594.79 289.303ZM334.54 325.401C324.996 326.847 323.891 330.757 331.826 335.004C337.59 338.088 350.29 331.952 350.29 326.082C350.29 323.214 349.269 323.17 334.54 325.401ZM374.29 349.429C374.29 365.632 379.776 369.107 406.768 369.998C420.171 370.441 432.494 371.642 434.152 372.667C438.453 375.325 449.29 368.868 449.29 363.646C449.29 358.377 445.77 357.972 441.044 362.698C438.449 365.293 435.746 364.93 430.1 361.231C425.515 358.227 421.891 357.471 420.769 359.285C416.926 365.504 411.114 362.296 412.556 354.752C414.296 345.65 408.821 344.786 404.194 353.432C399.473 362.253 385.621 360.29 383.326 350.474C380.811 339.718 374.29 338.964 374.29 349.429ZM488.29 357.502C488.29 360.115 490.428 362.252 493.04 362.252C498.338 362.252 497.415 355.794 491.853 353.94C489.893 353.286 488.29 354.89 488.29 357.502ZM615.656 358.828C616.677 362.048 615.495 366.007 612.858 368.196C607.819 372.378 606.796 377.252 610.958 377.252C612.425 377.252 616.646 374.806 620.339 371.816C625.259 367.832 626.496 364.626 624.969 359.816C623.823 356.206 620.861 353.252 618.386 353.252C615.365 353.252 614.467 355.085 615.656 358.828ZM562.301 358.241C561.207 359.335 564.357 362.69 569.301 365.697C575.284 369.336 578.29 373.579 578.29 378.387C578.29 389.794 569.86 391.04 551.738 382.312C545.943 379.52 544.014 379.836 540.908 384.084C536.615 389.954 527.118 390.88 522.151 385.913C516.979 380.741 511.115 385.721 515.771 391.332C522.484 399.42 533.397 401.872 540.876 396.972C546.346 393.387 549.426 393.202 556.863 396.009C575.826 403.167 592.929 388.719 586.688 370.814C582.668 359.281 568.543 351.999 562.301 358.241Z" fill="black"/>
</svg>
